# xmcd
#
# Track frame offsets: 
#        150
#        11621
#        24602
#        37700
#        50923
#        65532
#        82456
#        92836
#        103132
#        114518
#        128645
#        143460
#        156192
#        167881
#        179581
#        192454
#        203174
#        223071
#        233604
#        251360
#        268961
#        284456
#        311069
#        321471
#        332517
#
# Disc length: 4646 seconds
#
# Revision: 0
# Processed by: cddbd v1.5.2PL0 Copyright (c) Steve Scherf et al.
# Submitted via: ExactAudioCopy v0.99pb4
#
DISCID=7a122419
DTITLE=Bluesberry - Bluesberry Malostranska beseda 25 let LIVE
DYEAR=1998
DGENRE=Blues
TTITLE0=1. POCEM MOJE STARÁ
TTITLE1=2. NECEKEJ ZE SE VRÁTÍM
TTITLE2=3. DOBREJTRO BLUES
TTITLE3=4. BLUES POSLEDNÍ STARTKY
TTITLE4=5. ZASE STACE ZA STACÍ
TTITLE5=6. BLUES VE STÍNU LÍPY
TTITLE6=7. PADEVET
TTITLE7=8. VEPROVÁ
TTITLE8=9. ZASE JE TO SOUFL
TTITLE9=10. NOVÉ WAFKY
TTITLE10=11. CO JE TO BLUES
TTITLE11=12. BLUES OPUSTENÝ SILNICE
TTITLE12=13. VÍKEND S MÁNOU - (2:31)
TTITLE13=14. BRANDEJS
TTITLE14=15. HP CITY
TTITLE15=16. NEZNÁM SVOJE JMÉNO
TTITLE16=17. PODIVNEJ SEN
TTITLE17=18. VEPROVEJ OVAR
TTITLE18=19. KLÁNOVICE
TTITLE19=20. ASPON SE USMEJ, BABY
TTITLE20=21. MEJDAN
TTITLE21=22. AZ BUDU CHTÍT TAK ZAVOLÁM
TTITLE22=23. REKREACE S ROH
TTITLE23=24. METARSKÝ BLUES
TTITLE24=25. PADEVET
EXTD=
EXTT0=
EXTT1=
EXTT2=
EXTT3=
EXTT4=
EXTT5=
EXTT6=
EXTT7=
EXTT8=
EXTT9=
EXTT10=
EXTT11=
EXTT12=
EXTT13=
EXTT14=
EXTT15=
EXTT16=
EXTT17=
EXTT18=
EXTT19=
EXTT20=
EXTT21=
EXTT22=
EXTT23=
EXTT24=
PLAYORDER=
